<svg width="129" height="33" viewBox="0 0 129 33" fill="none" xmlns="http://www.w3.org/2000/svg">
<g clip-path="url(#clip0_1701_27)">
<path d="M16.5 33H33V30.3333H25.4955C22.9079 32.0194 19.8187 33 16.5 33Z" fill="#F7222D"/>
<path d="M16.5 27C14.662 27 13.1667 25.5047 13.1667 23.6667C13.1667 21.8287 14.662 20.3333 16.5 20.3333V12.6667C14.662 12.6667 13.1667 11.1713 13.1667 9.33333C13.1667 7.49533 14.662 6 16.5 6V0C7.38733 0 0 7.38733 0 16.5C0 25.6127 7.38733 33 16.5 33V27ZM9.33333 19.8333C7.49533 19.8333 6 18.338 6 16.5C6 14.662 7.49533 13.1667 9.33333 13.1667C11.1713 13.1667 12.6667 14.662 12.6667 16.5C12.6667 18.338 11.1713 19.8333 9.33333 19.8333Z" fill="#EA5259"/>
<path d="M33 16.5C33 7.38733 25.6127 0 16.5 0V6C18.338 6 19.8333 7.49533 19.8333 9.33333C19.8333 11.1713 18.338 12.6667 16.5 12.6667V20.3333C18.338 20.3333 19.8333 21.8287 19.8333 23.6667C19.8333 25.5047 18.338 27 16.5 27V33C19.8187 33 22.9079 32.0194 25.4955 30.3333C30.013 27.3897 33 22.294 33 16.5ZM23.6667 13.1667C25.5047 13.1667 27 14.662 27 16.5C27 18.338 25.5047 19.8333 23.6667 19.8333C21.8287 19.8333 20.3333 18.338 20.3333 16.5C20.3333 14.662 21.8287 13.1667 23.6667 13.1667Z" fill="#E50914"/>
<path d="M13.1667 9.33333C13.1667 11.1713 14.6621 12.6667 16.5001 12.6667C18.3381 12.6667 19.8334 11.1713 19.8334 9.33333C19.8334 7.49533 18.3381 6 16.5001 6C14.6621 6 13.1667 7.49533 13.1667 9.33333Z" fill="#E5B509"/>
<path d="M9.33333 13.1667C7.49533 13.1667 6 14.662 6 16.5C6 18.338 7.49533 19.8333 9.33333 19.8333C11.1713 19.8333 12.6667 18.338 12.6667 16.5C12.6667 14.662 11.1713 13.1667 9.33333 13.1667Z" fill="#E5B509"/>
<path d="M13.1667 23.6667C13.1667 25.5047 14.6621 27 16.5001 27C18.3381 27 19.8334 25.5047 19.8334 23.6667C19.8334 21.8287 18.3381 20.3333 16.5001 20.3333C14.6621 20.3333 13.1667 21.8287 13.1667 23.6667Z" fill="#E5B509"/>
<path d="M23.6666 19.8333C25.5046 19.8333 26.9999 18.338 26.9999 16.5C26.9999 14.662 25.5046 13.1667 23.6666 13.1667C21.8286 13.1667 20.3333 14.662 20.3333 16.5C20.3333 18.338 21.8286 19.8333 23.6666 19.8333Z" fill="#E5B509"/>
</g>
<path d="M43.0898 7.25H47.25V23.9102H49.3398C49.9193 23.9102 50.4108 23.7051 50.8145 23.2949C51.2246 22.8848 51.4297 22.3997 51.4297 21.8398V7.25H55.5898V23.9102H57.6797C58.2461 23.9102 58.7311 23.7051 59.1348 23.2949C59.5449 22.8848 59.75 22.3997 59.75 21.8398V7.25H63.9297V18.8809C63.9297 20.821 63.2298 22.4941 61.8301 23.9004C60.4368 25.3001 58.7637 26 56.8105 26H51.4297V25.3359C50.6289 25.7786 49.6426 26 48.4707 26H43.0898V7.25ZM68.0898 26V11.4102C68.0898 10.2708 68.4967 9.29427 69.3105 8.48047C70.1309 7.66016 71.1107 7.25 72.25 7.25H76.4297C77.569 7.25 78.5456 7.66016 79.3594 8.48047C80.1797 9.30078 80.5898 10.2773 80.5898 11.4102V26H76.4297V17.6602H72.25V26H68.0898ZM72.25 15.5898H76.4297V11.4102C76.4297 10.8437 76.2214 10.3587 75.8047 9.95508C75.3945 9.54492 74.9062 9.33984 74.3398 9.33984C73.7669 9.33984 73.2754 9.54492 72.8652 9.95508C72.4551 10.3587 72.25 10.8437 72.25 11.4102V15.5898ZM86.8105 26V9.33984H82.6504V7.25H95.1504V9.33984H90.9902V26H86.8105ZM109.74 21.8398C109.558 24.6133 108.171 26 105.58 26H101.4C100.261 26 99.2813 25.5931 98.4609 24.7793C97.6471 23.959 97.2402 22.9792 97.2402 21.8398V11.4102C97.2402 10.2904 97.6406 9.31706 98.4414 8.49023C99.2487 7.66341 100.235 7.25 101.4 7.25H105.58C108.197 7.25 109.584 8.63672 109.74 11.4102H107.65C107.488 10.0299 106.798 9.33984 105.58 9.33984H103.49C102.917 9.33984 102.426 9.54492 102.016 9.95508C101.605 10.3587 101.4 10.8437 101.4 11.4102V21.8398C101.4 22.3997 101.602 22.8848 102.006 23.2949C102.416 23.7051 102.911 23.9102 103.49 23.9102H105.58C106.804 23.9102 107.494 23.2201 107.65 21.8398H109.74ZM113.891 26V7.25H118.051V15.5898H122.23V7.25H126.391V26H122.23V17.6602H118.051V26H113.891Z" fill="#E50914"/>
<defs>
<clipPath id="clip0_1701_27">
<rect width="33" height="33" fill="white"/>
</clipPath>
</defs>
</svg>
