<svg width="33" height="33" viewBox="0 0 33 33" fill="none" xmlns="http://www.w3.org/2000/svg">
<g clip-path="url(#clip0_1701_29)">
<path d="M16.5 33H33V30.3333H25.4955C22.9079 32.0194 19.8187 33 16.5 33Z" fill="#F7222D"/>
<path d="M16.5 27C14.662 27 13.1667 25.5047 13.1667 23.6667C13.1667 21.8287 14.662 20.3333 16.5 20.3333V12.6667C14.662 12.6667 13.1667 11.1713 13.1667 9.33333C13.1667 7.49533 14.662 6 16.5 6V0C7.38733 0 0 7.38733 0 16.5C0 25.6127 7.38733 33 16.5 33V27ZM9.33333 19.8333C7.49533 19.8333 6 18.338 6 16.5C6 14.662 7.49533 13.1667 9.33333 13.1667C11.1713 13.1667 12.6667 14.662 12.6667 16.5C12.6667 18.338 11.1713 19.8333 9.33333 19.8333Z" fill="#EA5259"/>
<path d="M33 16.5C33 7.38733 25.6127 0 16.5 0V6C18.338 6 19.8333 7.49533 19.8333 9.33333C19.8333 11.1713 18.338 12.6667 16.5 12.6667V20.3333C18.338 20.3333 19.8333 21.8287 19.8333 23.6667C19.8333 25.5047 18.338 27 16.5 27V33C19.8187 33 22.9079 32.0194 25.4955 30.3333C30.013 27.3897 33 22.294 33 16.5ZM23.6667 13.1667C25.5047 13.1667 27 14.662 27 16.5C27 18.338 25.5047 19.8333 23.6667 19.8333C21.8287 19.8333 20.3333 18.338 20.3333 16.5C20.3333 14.662 21.8287 13.1667 23.6667 13.1667Z" fill="#E50914"/>
<path d="M13.1667 9.33333C13.1667 11.1713 14.6621 12.6667 16.5001 12.6667C18.3381 12.6667 19.8334 11.1713 19.8334 9.33333C19.8334 7.49533 18.3381 6 16.5001 6C14.6621 6 13.1667 7.49533 13.1667 9.33333Z" fill="#E5B509"/>
<path d="M9.33333 13.1667C7.49533 13.1667 6 14.662 6 16.5C6 18.338 7.49533 19.8333 9.33333 19.8333C11.1713 19.8333 12.6667 18.338 12.6667 16.5C12.6667 14.662 11.1713 13.1667 9.33333 13.1667Z" fill="#E5B509"/>
<path d="M13.1667 23.6667C13.1667 25.5047 14.6621 27 16.5001 27C18.3381 27 19.8334 25.5047 19.8334 23.6667C19.8334 21.8287 18.3381 20.3333 16.5001 20.3333C14.6621 20.3333 13.1667 21.8287 13.1667 23.6667Z" fill="#E5B509"/>
<path d="M23.6666 19.8333C25.5046 19.8333 26.9999 18.338 26.9999 16.5C26.9999 14.662 25.5046 13.1667 23.6666 13.1667C21.8286 13.1667 20.3333 14.662 20.3333 16.5C20.3333 18.338 21.8286 19.8333 23.6666 19.8333Z" fill="#E5B509"/>
</g>
<defs>
<clipPath id="clip0_1701_29">
<rect width="33" height="33" fill="white"/>
</clipPath>
</defs>
</svg>
